<?xml version="1.0" encoding="UTF-8"?>
<svg width="93" viewBox="0 0 93 30" version="1.1" xmlns="http://www.w3.org/2000/svg" xmlns:xlink="http://www.w3.org/1999/xlink">
    <!-- Generator: Sketch 54.1 (76490) - https://sketchapp.com -->
    <title>Logo</title>
    <desc>Created with Sketch.</desc>
    <g id="Temp-landing-page" stroke="none" stroke-width="1" fill="none" fill-rule="evenodd">
        <g id="Landing-Page---mobile-small" transform="translate(-14.000000, -19.000000)">
            <g id="Logo" transform="translate(14.000000, 19.000000)">
                <path d="M12.0681077,0 L12.0681077,5.20624154 C12.0681077,5.20624154 12.0681077,5.20624154 12.0681077,5.20624154 L12.0681077,5.20624154 C11.3801494,5.05584358 10.6695337,4.96931325 9.93832051,4.96931325 C4.457311,4.96931325 0,9.42974575 0,14.91 C0,20.3902542 4.457311,24.8506867 9.93832051,24.8506867 C10.6695337,24.8506867 11.3801494,24.7641564 12.0681077,24.6137585 L12.0681077,24.6158187 C12.0681077,24.6158187 12.0681077,24.6158187 12.0681077,24.6158187 L12.0681077,29.82 L12.3914894,29.82 L12.89201,29.82 L26.4760978,29.82 L27.3,29.82 L27.3,28.9979619 L27.3,24.8506867 L27.3,0.824098383 L27.3,0 L12.0681077,0 Z M12.0681077,6.05506287 L12.0681077,23.7649371 C11.3822091,23.9297568 10.6715935,24.0265884 9.93832051,24.0265884 C4.91251698,24.0265884 0.821842463,19.9370001 0.821842463,14.91 C0.821842463,9.88299986 4.91251698,5.79341163 9.93832051,5.79341163 C10.6715935,5.79341163 11.3822091,5.89024319 12.0681077,6.05506287 L12.0681077,6.05506287 Z M26.4760978,24.8506867 L26.4760978,28.9979619 L12.89201,28.9979619 L12.89201,24.4015531 C13.0588502,24.350047 13.2174513,24.2820589 13.380172,24.2223117 C13.4913988,24.1811068 13.6026256,24.1460826 13.7117927,24.1007572 C13.8539158,24.0430703 13.9919194,23.9750822 14.129923,23.9091543 C14.2679267,23.8452867 14.40799,23.7814191 14.5418742,23.7113707 C14.6654595,23.6454429 14.7849253,23.5753945 14.9043911,23.5053461 C15.0506338,23.4208761 15.1948167,23.3343457 15.3369398,23.2436949 C15.4419873,23.1736465 15.5470349,23.1035982 15.6500226,23.0314896 C15.8003848,22.9243568 15.9486872,22.8131035 16.0928701,22.6977297 C16.1793798,22.6297416 16.2679493,22.5617535 16.3523993,22.4896449 C16.5130602,22.3536686 16.6675419,22.2094514 16.8199638,22.063174 C16.8817565,22.0034268 16.9456089,21.9478002 17.0074015,21.8859928 C17.2051381,21.6840887 17.3946356,21.4760039 17.5758941,21.259678 C17.5861928,21.2473166 17.5964916,21.2370153 17.6067904,21.2246539 C17.8065867,20.9815448 17.9960842,20.7281346 18.1732232,20.4664833 C18.1773427,20.4603026 18.1814622,20.4541219 18.1855817,20.4479411 C18.3503622,20.2048321 18.5007243,19.9514219 18.6428474,19.6938911 C18.6778633,19.6300235 18.7087596,19.5661559 18.7437755,19.5022882 C18.848823,19.2962636 18.9518108,19.090239 19.0444998,18.8780337 C19.0815754,18.7915034 19.1165912,18.7029128 19.1516071,18.6163825 C19.2298778,18.4206591 19.304029,18.2208153 19.3699411,18.0189112 C19.4028972,17.9200193 19.4337936,17.8211275 19.4646899,17.7222357 C19.5223631,17.5223919 19.5738569,17.3204878 19.6191716,17.1165234 C19.6438886,17.0135111 19.6686057,16.9104988 19.6892033,16.8054263 C19.7303984,16.5891005 19.7612947,16.3686541 19.7901313,16.1482078 C19.8004301,16.0554968 19.8169081,15.9627857 19.8272069,15.8680144 C19.8560435,15.5527967 19.8745813,15.2334586 19.8745813,14.91 C19.8745813,14.5865414 19.8560435,14.2672033 19.8272069,13.9519856 C19.8169081,13.8572143 19.8004301,13.7665635 19.7901313,13.6717922 C19.7612947,13.4513459 19.7303984,13.2308995 19.6892033,13.016634 C19.6686057,12.9115614 19.6438886,12.8085491 19.6191716,12.7034766 C19.5738569,12.4995122 19.5223631,12.2996684 19.4646899,12.0998245 C19.4337936,11.9988725 19.4028972,11.8999807 19.3699411,11.8010888 C19.304029,11.5991847 19.2298778,11.4014011 19.1516071,11.2056778 C19.1165912,11.1170872 19.0815754,11.0284966 19.04244,10.9419663 C18.9518108,10.7318212 18.8508828,10.5257966 18.7458352,10.3238925 C18.7108194,10.2579646 18.6778633,10.1899765 18.6428474,10.1240486 C18.5027841,9.87269863 18.3544817,9.62546912 18.1938207,9.38648059 C18.1855817,9.37411911 18.1794024,9.36381788 18.1732232,9.3514564 C17.9960842,9.09186541 17.8086464,8.84051541 17.6088502,8.59946663 C17.5923721,8.57886417 17.5758941,8.5623822 17.559416,8.54383999 C17.3843368,8.3336949 17.2010186,8.1317908 17.0094613,7.93812768 C16.9456089,7.87219981 16.8755772,7.81039243 16.809665,7.7465248 C16.6613626,7.60642808 16.5130602,7.4683916 16.3565188,7.33653586 C16.2679493,7.26030676 16.1752603,7.18819815 16.0846311,7.11402929 C15.9445677,7.00483626 15.8024445,6.89770347 15.6582617,6.79675142 C15.5490946,6.71846207 15.4399276,6.64429322 15.3287008,6.57218461 C15.1927569,6.48565428 15.056813,6.40324444 14.9188094,6.32289485 C14.7911046,6.24872599 14.6654595,6.17455714 14.5356949,6.10656902 C14.4100498,6.04064115 14.282345,5.98295426 14.1566999,5.92320713 C14.0063377,5.85315877 13.8580353,5.78105016 13.7056134,5.71718253 C13.6252829,5.6842186 13.5449525,5.65949565 13.464622,5.62859196 C13.2751245,5.55648335 13.0876867,5.48025425 12.89201,5.41844687 L12.89201,0.824098383 L26.4760978,0.824098383 L26.4760978,24.8506867 Z" id="Fill-1" fill="#000000"></path>
                <text id="Sunsten" font-family="Calibre-Semibold, Calibre" font-size="16.8" font-weight="500" letter-spacing="-0.00599999819" fill="#1B1917">
                    <tspan x="38.22" y="28.9">Sunsten</tspan>
                </text>
            </g>
        </g>
    </g>
</svg>