<svg xmlns="http://www.w3.org/2000/svg" width="169" viewBox="0 0 169 56">
  <g fill="none" fill-rule="evenodd">
    <path fill="#000" d="M21.9811962,0.765 L21.9811962,10.2477971 C21.9811962,10.2477971 21.9811962,10.2477971 21.9811962,10.2477971 L21.9811962,10.2477971 C20.7281292,9.97385795 19.4337936,9.81624914 18.1019409,9.81624914 C8.11867361,9.81624914 0,17.9406083 0,27.9225 C0,37.9043917 8.11867361,46.0287509 18.1019409,46.0287509 C19.4337936,46.0287509 20.7281292,45.871142 21.9811962,45.5972029 L21.9811962,45.6009555 C21.9811962,45.6009555 21.9811962,45.6009555 21.9811962,45.6009555 L21.9811962,55.08 L22.5702128,55.08 L23.4818753,55.08 L48.224321,55.08 L49.725,55.08 L49.725,53.5827162 L49.725,46.0287509 L49.725,2.26603634 L49.725,0.765 L21.9811962,0.765 Z M21.9811962,11.7938645 L21.9811962,44.0511355 C20.7318809,44.3513428 19.4375453,44.5277145 18.1019409,44.5277145 C8.94779878,44.5277145 1.49692734,37.0788217 1.49692734,27.9225 C1.49692734,18.7661783 8.94779878,11.3172855 18.1019409,11.3172855 C19.4375453,11.3172855 20.7318809,11.4936572 21.9811962,11.7938645 L21.9811962,11.7938645 Z M48.224321,46.0287509 L48.224321,53.5827162 L23.4818753,53.5827162 L23.4818753,45.2106861 C23.7857628,45.1168713 24.0746435,44.9930358 24.3710276,44.8842107 C24.5736193,44.8091588 24.776211,44.7453648 24.9750509,44.6628078 C25.2339181,44.5577352 25.4852818,44.4338998 25.7366455,44.3138168 C25.9880093,44.1974865 26.2431247,44.0811562 26.4869851,43.9535681 C26.7120869,43.8334852 26.9296854,43.7058971 27.1472838,43.578309 C27.4136544,43.4244528 27.6762732,43.266844 27.9351403,43.10173 C28.1264769,42.9741419 28.3178135,42.8465538 28.5053984,42.7152131 C28.7792723,42.5200784 29.0493945,42.3174385 29.3120134,42.1072934 C29.4695847,41.9834579 29.6309077,41.8596224 29.7847273,41.7282817 C30.0773597,41.4806108 30.358737,41.2179294 30.6363626,40.9514954 C30.7489135,40.8426703 30.8652162,40.7413504 30.9777671,40.6287726 C31.3379301,40.2610187 31.6830862,39.882007 32.0132356,39.487985 C32.0319941,39.4654695 32.0507526,39.4467065 32.0695111,39.424191 C32.4334258,38.9813852 32.7785819,38.5198166 33.1012279,38.0432375 C33.1087313,38.0319798 33.1162347,38.020722 33.1237381,38.0094642 C33.4238739,37.5666585 33.6977478,37.1050898 33.956615,36.636016 C34.0203938,36.5196856 34.0766693,36.4033553 34.1404482,36.287025 C34.3317847,35.9117659 34.5193696,35.5365068 34.688196,35.14999 C34.7557266,34.9923812 34.8195054,34.8310198 34.8832843,34.6734109 C35.0258488,34.3169148 35.1609099,33.9529135 35.2809642,33.5851596 C35.3409914,33.4050352 35.3972669,33.2249109 35.4535423,33.0447865 C35.5585899,32.6807852 35.6523823,32.3130313 35.7349196,31.9415248 C35.77994,31.7538953 35.8249604,31.5662657 35.8624774,31.3748836 C35.9375113,30.9808615 35.9937868,30.5793343 36.0463105,30.1778071 C36.065069,30.0089405 36.0950826,29.8400739 36.1138411,29.6674547 C36.1663649,29.0933083 36.2001301,28.5116568 36.2001301,27.9225 C36.2001301,27.3333432 36.1663649,26.7516917 36.1138411,26.1775453 C36.0950826,26.0049261 36.065069,25.8398121 36.0463105,25.6671929 C35.9937868,25.2656657 35.9375113,24.8641385 35.8624774,24.473869 C35.8249604,24.2824869 35.77994,24.0948573 35.7349196,23.9034752 C35.6523823,23.5319687 35.5585899,23.1679674 35.4535423,22.8039661 C35.3972669,22.6200891 35.3409914,22.4399648 35.2809642,22.2598404 C35.1609099,21.8920865 35.0258488,21.5318378 34.8832843,21.1753416 C34.8195054,21.0139802 34.7557266,20.8526188 34.6844443,20.69501 C34.5193696,20.3122458 34.3355364,19.9369867 34.1441999,19.5692328 C34.080421,19.4491499 34.0203938,19.3253144 33.956615,19.2052314 C33.7014995,18.7474154 33.4313773,18.2971045 33.1387449,17.8618039 C33.1237381,17.8392884 33.112483,17.8205254 33.1012279,17.7980099 C32.7785819,17.3251834 32.4371775,16.8673673 32.0732628,16.4283142 C32.0432492,16.3907883 32.0132356,16.3607676 31.983222,16.3269943 C31.6643278,15.94423 31.3304267,15.5764761 30.9815188,15.2237326 C30.8652162,15.1036496 30.7376584,14.9910719 30.6176041,14.8747416 C30.3474819,14.6195654 30.0773597,14.3681418 29.7922306,14.127976 C29.6309077,13.9891302 29.4620813,13.8577895 29.2970066,13.7226962 C29.0418911,13.5238089 28.783024,13.3286742 28.5204052,13.1447972 C28.3215652,13.0021988 28.1227252,12.8671055 27.9201335,12.7357648 C27.6725215,12.578156 27.4249095,12.4280524 27.1735457,12.2817013 C26.9409405,12.1466081 26.7120869,12.0115148 26.47573,11.8876793 C26.2468764,11.7675964 26.0142712,11.6625238 25.7854176,11.5536987 C25.5115437,11.4261106 25.2414215,11.2947699 24.9637958,11.1784396 C24.8174796,11.1183982 24.6711634,11.0733671 24.5248472,11.0170782 C24.179691,10.8857375 23.8382866,10.7468917 23.4818753,10.6343139 L23.4818753,2.26603634 L48.224321,2.26603634 L48.224321,46.0287509 Z"/>
    <path fill="#1B1917" fill-rule="nonzero" d="M70.1352,49.07 L74.1744,49.07 C74.6946,50.7224 76.0716,51.4874 77.9076,51.4874 C79.8048,51.4874 81.0594,50.6306 81.0594,49.1312 C81.0594,47.999 80.3862,47.387 78.7644,47.0198 L75.3984,46.2548 C72.7056,45.6428 70.6248,44.2046 70.6248,41.114 C70.6248,37.7174 73.44,35.3306 77.3874,35.3306 C81.6714,35.3306 84.15,37.595 84.762,40.7774 L80.8758,40.7774 C80.4474,39.5228 79.3764,38.5436 77.418,38.5436 C75.6432,38.5436 74.4498,39.4004 74.4498,40.7468 C74.4498,41.8178 75.1536,42.4604 76.5612,42.797 L79.9884,43.5926 C83.0484,44.2964 84.915,46.0406 84.915,48.8864 C84.915,52.5278 81.9162,54.731 77.9382,54.731 C73.746,54.731 70.7778,52.6502 70.1352,49.07 Z M99.5920714,40.7468 L99.5920714,54.425 L95.7976714,54.425 L95.7976714,53.1704 C95.0326714,54.0272 93.7168714,54.731 92.1256714,54.731 C89.0656714,54.731 87.3214714,52.7114 87.3214714,49.682 L87.3214714,40.7468 L91.1158714,40.7468 L91.1158714,48.917 C91.1158714,50.3552 91.8196714,51.3344 93.3190714,51.3344 C94.4818714,51.3344 95.4916714,50.6306 95.7670714,49.4372 L95.7670714,40.7468 L99.5920714,40.7468 Z M102.855343,54.425 L102.855343,40.7468 L106.649743,40.7468 L106.649743,42.0014 C107.384143,41.1446 108.730543,40.4408 110.321743,40.4408 C113.412343,40.4408 115.156543,42.4604 115.156543,45.4898 L115.156543,54.425 L111.362143,54.425 L111.362143,46.2854 C111.362143,44.8472 110.627743,43.868 109.128343,43.868 C107.965543,43.868 106.955743,44.5718 106.649743,45.7652 L106.649743,54.425 L102.855343,54.425 Z M117.410014,50.3552 L121.173814,50.3552 C121.479814,51.3344 122.336614,51.8546 123.468814,51.8546 C124.631614,51.8546 125.396614,51.3956 125.396614,50.5082 C125.396614,49.8962 124.968214,49.5902 124.019614,49.3454 L121.265614,48.7334 C119.184814,48.2438 117.716014,47.1728 117.716014,44.8778 C117.716014,42.2156 120.102814,40.4408 123.162814,40.4408 C126.620614,40.4408 128.517814,42.0932 128.976814,44.6636 L125.366014,44.6636 C125.121214,43.8986 124.478614,43.3172 123.224014,43.3172 C122.306014,43.3172 121.418614,43.7456 121.418614,44.6024 C121.418614,45.1532 121.785814,45.4592 122.642614,45.6734 L125.457814,46.316 C127.844614,46.8974 129.099214,48.2132 129.099214,50.294 C129.099214,53.0786 126.681814,54.731 123.499414,54.731 C120.164014,54.731 117.807814,53.1398 117.410014,50.3552 Z M132.484886,50.294 L132.484886,43.8068 L130.404086,43.8068 L130.404086,40.7468 L132.484886,40.7468 L132.484886,37.0442 L136.248686,37.0442 L136.248686,40.7468 L139.247486,40.7468 L139.247486,43.8068 L136.248686,43.8068 L136.248686,49.8044 C136.248686,50.8754 136.830086,51.365 137.809286,51.365 C138.390686,51.365 139.033286,51.1814 139.461686,50.906 L139.461686,54.272 C138.941486,54.5474 138.023486,54.7004 137.013686,54.7004 C134.229086,54.7004 132.484886,53.3234 132.484886,50.294 Z M150.405557,49.9574 L153.924557,49.9574 C153.434957,52.8644 151.292957,54.731 147.865757,54.731 C143.887757,54.731 141.225557,51.824 141.225557,47.6012 C141.225557,43.4702 143.979557,40.4408 147.804557,40.4408 C151.813157,40.4408 154.016357,43.2254 154.016357,47.234 L154.016357,48.3968 L144.897557,48.3968 C145.019957,50.447 146.182757,51.671 147.865757,51.671 C149.150957,51.671 150.099557,51.1202 150.405557,49.9574 Z M147.835157,43.5314 C146.366357,43.5314 145.325957,44.4188 144.989357,46.1018 L150.283157,46.1018 C150.252557,44.6636 149.395757,43.5314 147.835157,43.5314 Z M156.422829,54.425 L156.422829,40.7468 L160.217229,40.7468 L160.217229,42.0014 C160.951629,41.1446 162.298029,40.4408 163.889229,40.4408 C166.979829,40.4408 168.724029,42.4604 168.724029,45.4898 L168.724029,54.425 L164.929629,54.425 L164.929629,46.2854 C164.929629,44.8472 164.195229,43.868 162.695829,43.868 C161.533029,43.868 160.523229,44.5718 160.217229,45.7652 L160.217229,54.425 L156.422829,54.425 Z"/>
  </g>
</svg>
